# xmcd CD database file
#
# Track frame offsets:
#	150
#	13517
#	27521
#	41204
#	55427
#	68119
#	81176
#	91124
#	103158
#	117556
#	132708
#	146989
#	160310
#	172441
#	187040
#	202264
#	215505
#	228228
#	242678
#	256508
#	271683
#	282798
#	294426
#	308599
#	321259
#	335592
#
# Disc length: 4658 seconds
#
# Revision: 0
# Processed by: cddbd v1.5.1PL0 Copyright (c) Steve Scherf et al.
# Submitted via: CDex 1.51
#
DISCID=9512301a
DTITLE=Muddy Waters - Baby Please Don´t Go Cd2
DYEAR=2004
DGENRE=Blues
TTITLE0=Walkin´blues
TTITLE1=You´re Gonna Need My Help I Say
TTITLE2=Sad Letter Blues
TTITLE3=Eary Morning Blues
TTITLE4=Appealing Blues (Hello Little Girl)
TTITLE5=Louisiana Blues
TTITLE6=Evan´s Shuffle
TTITLE7=Long Distance Call
TTITLE8=Too Young To Know
TTITLE9=Honey Bee
TTITLE10=Country Boy
TTITLE11=She Moves Me
TTITLE12=My Fault
TTITLE13=Still A Fool
TTITLE14=They Call Me Muddy Waters
TTITLE15=All Night Long
TTITLE16=Stuff You Gotta Watch
TTITLE17=Please Have Mercy
TTITLE18=Who´s Gonna Be Your Sweet Man
TTITLE19=Standing Around Crying
TTITLE20=Gone To Main Street
TTITLE21=She´s All Right
TTITLE22=Sad, Sad Day
TTITLE23=Turn The Lamp Down Low
TTITLE24=Blow Wind Blow
TTITLE25=Mad Love (I Want You To Love Me)
EXTD=YEAR: 2004
EXTT0=
EXTT1=
EXTT2=
EXTT3=
EXTT4=
EXTT5=
EXTT6=
EXTT7=
EXTT8=
EXTT9=
EXTT10=
EXTT11=
EXTT12=
EXTT13=
EXTT14=
EXTT15=
EXTT16=
EXTT17=
EXTT18=
EXTT19=
EXTT20=
EXTT21=
EXTT22=
EXTT23=
EXTT24=
EXTT25=
PLAYORDER=
